<svg id="Layer_1" data-name="Layer 1" xmlns="http://www.w3.org/2000/svg" viewBox="0 0 1500 1500"><defs><style>.cls-1{fill:#fff;}</style></defs><title>main swop</title><circle cx="750" cy="750" r="683.78"/><path class="cls-1" d="M364.06,730.52s47-4.17,47,37.5,9.53,89.3-55.36,89.3h-78s-26.2.59-26.2-15.48-4.76-30.07,30.07-30.07h75.9c9.52,0,15.47,2.68,15.47-12.2s4.17-28-16.66-28H299.76c-13.09,0-47.3-3.57-47.3-44.65V693.61c0-11.91,3.25-41.67,43.73-41.67H383.7c10.72,0,23.81-2.39,23.81,18.45s-1.78,22-30.95,22H302.74c-6.55,0-8.34,0-8.34,11.31v19c0,7.74,4.17,8.33,14.29,8.33S364.06,730.52,364.06,730.52Z"/><path class="cls-1" d="M622.42,722.18s-29.17,96.44-33.34,108.35-25,35.12-44.05,20.83-31-61.91-35.72-77.39-31.55-105.37-33.93-113.1,2.38-15.48,12.5-15.48,25-3.57,29.76,13.69,39.29,133.6,39.29,133.6S592.65,685.27,596.82,671s12.21-27.54,27.54-27.54,22.46,11.46,26,23.37,37.5,125.86,37.5,125.86,40.48-126.46,45.24-136,11.31-16.38,26.2-13.25S777.2,650.15,773,665s-48.22,155.38-56,168.47-11.91,22.37-29.17,22.37-28-15.82-35.72-39.63S622.42,722.18,622.42,722.18Z"/><path class="cls-1" d="M915.9,649c-82.15,0-80.36,32.15-80.36,83.94,0,0,0,54.17,0,76.2s27.39,46.77,48.82,46.77h63.1c70.25,0,70.25-40.23,70.25-60.47V726.94C1017.7,658.48,998.05,649,915.9,649Zm62.51,147.63a17.27,17.27,0,0,1-17.26,17.27H893.28A17.27,17.27,0,0,1,876,796.59V709.68a17.26,17.26,0,0,1,17.26-17.26h67.87a17.26,17.26,0,0,1,17.26,17.26Z"/><path class="cls-1" d="M1118.9,772.19v63.1c0,14.88-3,19.64-19.64,19.64s-22.63,2.39-22.63-33.93V752.41c0-11.18,2.39-21.3,30.36-21.3h73.23c16.07,0,28,1.79,28-13.1s7.14-28.57-14.89-28.57h-98.82c-17.86,0-28-40.48,10.72-40.48h88.7c16.67,0,54.77,8.93,54.77,63.7s-32.74,59.53-86,59.53Z"/></svg>